<svg width="48" height="48" viewBox="0 0 48 48" fill="none" xmlns="http://www.w3.org/2000/svg">
<path d="M28.6529 0C26.2711 0 24.3806 2.10581 24.309 4.65384C24.3056 4.68074 24.304 4.70782 24.3041 4.73492V4.76063V4.76161C24.304 4.77527 24.3022 4.78848 24.3022 4.80215C24.3018 4.82326 24.3024 4.84438 24.3041 4.86543L24.2983 7.93436C24.2979 7.98021 24.3025 8.02596 24.3119 8.0708C24.3119 8.07179 24.3119 8.07278 24.3119 8.07377C24.3554 9.48398 24.853 10.7781 25.6573 11.7735C24.8143 12.8028 24.305 14.1562 24.2896 15.6334C24.2855 15.6635 24.2835 15.6939 24.2837 15.7244L24.2634 26.6804C24.2634 26.6817 24.2634 26.683 24.2634 26.6843C24.2634 26.6857 24.2634 26.687 24.2634 26.6883V26.7713C24.2632 26.8078 24.2661 26.8442 24.2721 26.8801C24.2721 26.8814 24.2721 26.8827 24.2721 26.8841C24.3009 28.5121 24.9241 29.9904 25.9387 31.0416C24.8894 32.1222 24.25 33.6622 24.2508 35.3365V35.3375C24.2489 35.3578 24.2479 35.3783 24.2479 35.3988L24.2333 43.191C24.2333 43.1933 24.2333 43.1956 24.2333 43.1979C24.2333 43.1989 24.2333 43.1998 24.2333 43.2008V43.2799C24.2329 43.318 24.2358 43.3561 24.2421 43.3936C24.3358 45.9202 26.2172 48 28.584 48C30.0676 48 31.36 47.181 32.1432 45.9494C32.3877 46.068 32.6397 46.1734 32.9066 46.249C35.5853 47.0078 38.3029 45.1732 38.9624 42.2636C38.9892 42.1456 39.007 42.0277 39.0265 41.9096C41.4237 42.8314 44.1779 41.7757 45.4995 39.2925C46.5509 37.317 46.4687 34.9599 45.4617 33.1212C46.1528 32.4898 46.7436 31.702 47.1855 30.777C48.8457 27.3017 47.8891 23.0557 45.0329 20.8405C45.3837 20.0561 45.5887 19.1805 45.5887 18.2511C45.5887 15.3889 43.7071 12.9637 41.1973 12.4848C42.2462 9.72987 41.4986 6.45577 39.2077 4.61669C37.8794 3.55045 36.2703 3.1923 34.7571 3.46879C34.1312 3.58317 33.5242 3.81185 32.9577 4.13816C32.6641 1.8284 30.8713 0.000456575 28.6526 0.000456575L28.6529 0ZM23.3057 0.0088982C21.8145 0.0219201 20.3279 0.179169 18.8658 0.47853L18.8687 0.480507L18.8697 0.481496C18.8886 0.521434 18.9071 0.561645 18.925 0.602117L18.9376 0.633755C19.4065 1.78053 19.4098 3.0701 18.9467 4.21935C18.4837 5.36861 17.5921 6.28363 16.4678 6.76352C15.3436 7.24306 14.0787 7.24849 12.9507 6.7786C11.8226 6.30871 10.9235 5.4019 10.4507 4.25715C10.4296 4.20217 10.4095 4.14679 10.3905 4.09104C7.85795 5.8344 5.68222 8.06313 3.9845 10.6531C4.97293 11.1477 5.75456 11.9872 6.18747 13.0191L6.20105 13.0517C6.66968 14.1984 6.67282 15.4877 6.20978 16.6367C5.74675 17.7857 4.85537 18.7005 3.73127 19.1805C2.69245 19.6222 1.53077 19.6606 0.466084 19.2882C-0.153067 22.4141 -0.155375 25.6343 0.459293 28.761C0.507711 28.7368 0.556545 28.7134 0.60577 28.6908C1.72815 28.2071 2.99297 28.1969 4.12271 28.6625C5.25244 29.1281 6.15482 30.0315 6.63183 31.1744L6.64542 31.2071C7.11373 32.3536 7.11671 33.6427 6.65369 34.7914C6.19068 35.9402 5.29949 36.8549 4.17564 37.3348C4.11595 37.3582 4.0558 37.3802 3.99521 37.401C5.73076 40.0297 7.95937 42.2824 10.5527 44.0294C11.0231 42.9252 11.8921 42.0477 12.9798 41.5784C14.1023 41.0944 15.3673 41.084 16.4973 41.5497C17.6273 42.0153 18.5298 42.9189 19.0068 44.062L19.0204 44.0947C19.472 45.2051 19.4879 46.4498 19.065 47.5719C20.4634 47.8415 21.8829 47.9815 23.3061 47.9901V33.8262C21.4513 33.7791 19.6491 33.1878 18.1156 32.1232C16.5821 31.0587 15.3824 29.5659 14.6601 27.824C13.6684 25.4234 13.6517 22.7198 14.6138 20.3066C15.5759 17.8935 17.4381 15.9681 19.7917 14.953C20.9059 14.4761 22.0981 14.2168 23.3062 14.1887V0.00856835L23.3057 0.0088982ZM28.6529 1.26553C30.3451 1.26553 31.7628 2.81101 31.7628 4.8021C31.762 4.87475 31.7735 4.94699 31.7968 5.01567C31.4602 5.34183 31.15 5.70938 30.881 6.12797C30.8352 6.19749 30.8033 6.27558 30.7873 6.35773C30.7713 6.43989 30.7715 6.52446 30.7878 6.60655C30.8041 6.68864 30.8362 6.76661 30.8823 6.83595C30.9284 6.90529 30.9876 6.96461 31.0563 7.01048C31.1251 7.05635 31.2021 7.08785 31.2829 7.10315C31.3637 7.11846 31.4466 7.11727 31.527 7.09965C31.6073 7.08202 31.6834 7.04832 31.7509 7.0005C31.8183 6.95267 31.8758 6.89167 31.92 6.82103C33.4558 4.43043 36.3239 3.91151 38.4397 5.60986C40.5555 7.30827 41.0581 10.673 39.5223 13.0639C38.6491 14.4231 37.3374 15.1619 35.9865 15.248C35.8509 15.2566 35.715 15.2505 35.5791 15.246C35.5481 13.7753 34.9868 12.3241 33.9067 11.2655C34.5162 10.3194 34.8808 9.17058 34.8923 7.9345C34.8937 7.85101 34.8789 7.76805 34.8488 7.69041C34.8186 7.61277 34.7737 7.54197 34.7166 7.48211C34.6595 7.42225 34.5913 7.3745 34.516 7.34161C34.4407 7.30873 34.3597 7.29137 34.2778 7.29052C34.1959 7.28967 34.1146 7.30536 34.0386 7.33667C33.9627 7.36799 33.8936 7.41432 33.8353 7.47299C33.777 7.53165 33.7306 7.6015 33.6989 7.67851C33.6672 7.75551 33.6508 7.83815 33.6506 7.92165C33.6267 10.4954 31.7695 12.4915 29.556 12.4657C27.3425 12.4401 25.52 10.3995 25.5439 7.82577C25.5443 7.80466 25.5436 7.78354 25.542 7.7625C25.5413 7.75821 25.5407 7.75392 25.54 7.74964L25.5449 5.07024L25.5458 4.75979C25.5661 2.78955 26.9728 1.26553 28.6529 1.26553ZM33.1093 12.2448C34.6052 13.7825 34.7533 16.4412 33.4042 18.1741C33.297 18.3119 33.1845 18.4393 33.0666 18.5568C33.0131 18.6101 32.9552 18.6539 32.8998 18.7031C32.8566 18.6404 32.8172 18.5749 32.7717 18.5143C31.9602 17.4334 30.7741 16.6915 29.395 16.5546C29.3747 16.5523 29.3543 16.551 29.3339 16.5507C29.1726 16.5481 29.0167 16.6095 28.8991 16.7219C28.7815 16.8344 28.7115 16.9891 28.7038 17.1533C28.6961 17.3174 28.7514 17.4782 28.8579 17.6016C28.9645 17.7249 29.1139 17.8012 29.2747 17.8143C31.3016 18.0154 32.8517 20.0425 32.6641 22.4058C32.6347 22.7753 32.5645 23.1281 32.4594 23.4597C32.4324 23.5393 32.4213 23.6236 32.4266 23.7076C32.432 23.7916 32.4538 23.8737 32.4907 23.949C32.5276 24.0244 32.5789 24.0915 32.6415 24.1463C32.7042 24.2012 32.7769 24.2428 32.8555 24.2687C32.9342 24.2945 33.0171 24.3041 33.0994 24.2969C33.1817 24.2897 33.2617 24.2658 33.3349 24.2267C33.408 24.1875 33.4728 24.1339 33.5253 24.0689C33.5779 24.0039 33.6171 23.9289 33.6409 23.8483C33.7755 23.4235 33.8648 22.9744 33.9018 22.5076C33.9766 21.5657 33.8291 20.6531 33.507 19.8362C33.8213 19.5863 34.1147 19.296 34.3762 18.9602C34.9434 18.2315 35.3078 17.3878 35.4762 16.5122C36.9236 16.5767 38.3677 16.0541 39.5048 15.0153C39.6031 14.9255 39.6985 14.8318 39.792 14.7345C40.0724 14.4424 40.3308 14.1163 40.5612 13.7576C40.5784 13.7309 40.5919 13.7025 40.6087 13.6756C42.6787 13.8569 44.3473 15.8 44.3473 18.2503C44.3473 18.9119 44.2244 19.5381 44.0039 20.1032C43.9954 20.125 43.9836 20.1447 43.9748 20.1664C43.2297 19.7805 42.4494 19.5436 41.6651 19.4645C40.9053 19.3878 40.1457 19.4575 39.4155 19.6503C39.1793 18.9771 38.7342 18.3855 38.105 18.0002C37.9986 17.9331 37.8749 17.9004 37.7499 17.9062C37.6162 17.9126 37.488 17.9629 37.3846 18.0496C37.2811 18.1363 37.208 18.2548 37.176 18.3873C37.144 18.5199 37.155 18.6594 37.2072 18.7851C37.2594 18.9108 37.3501 19.0159 37.4657 19.0848C38.2845 19.5861 38.618 20.8073 38.1467 21.7691C38.073 21.9195 37.9858 22.0527 37.8887 22.1685C37.8329 22.2313 37.79 22.3048 37.7627 22.3847C37.7353 22.4646 37.7239 22.5493 37.7292 22.6338C37.7345 22.7183 37.7564 22.8009 37.7936 22.8766C37.8307 22.9523 37.8824 23.0196 37.9456 23.0746C38.0087 23.1296 38.0821 23.1711 38.1613 23.1967C38.2405 23.2222 38.3239 23.2313 38.4066 23.2235C38.4893 23.2156 38.5696 23.1909 38.6428 23.1508C38.7159 23.1107 38.7805 23.0561 38.8325 22.9901C38.9964 22.7948 39.1393 22.5757 39.2574 22.3346C39.4803 21.8798 39.592 21.392 39.6066 20.9079C40.9388 20.52 42.3865 20.66 43.7061 21.4477C46.4935 23.1116 47.5808 27.0581 46.0691 30.2225C45.3199 31.7909 44.0923 32.853 42.7147 33.3319C42.0947 33.5475 41.4805 33.4898 40.8201 33.1382C40.1598 32.7865 39.4689 32.1187 38.8451 31.1251C38.8419 31.1201 38.8387 31.1152 38.8354 31.1103C39.7057 30.4085 40.2868 29.2967 40.338 28.0433C40.3426 27.9589 40.3305 27.8743 40.3024 27.7947C40.2744 27.715 40.2309 27.642 40.1747 27.5797C40.1184 27.5175 40.0505 27.4674 39.9749 27.4324C39.8993 27.3974 39.8177 27.3782 39.7347 27.376C39.5702 27.3714 39.4106 27.4337 39.2911 27.549C39.1716 27.6643 39.1019 27.8232 39.0973 27.9909C39.0335 29.5507 37.8859 30.6856 36.5791 30.6189C36.3748 30.6084 36.179 30.5692 35.9922 30.5052C35.9149 30.4787 35.8332 30.468 35.7518 30.4737C35.6704 30.4794 35.591 30.5013 35.5179 30.5383C35.4449 30.5753 35.3797 30.6266 35.3261 30.6893C35.2725 30.752 35.2315 30.8248 35.2055 30.9036C35.1795 30.9824 35.169 31.0657 35.1746 31.1486C35.1802 31.2316 35.2017 31.3126 35.238 31.3871C35.2743 31.4615 35.3247 31.528 35.3862 31.5826C35.4477 31.6372 35.5191 31.679 35.5964 31.7055C35.8885 31.8056 36.1978 31.8661 36.517 31.8824C36.9471 31.9044 37.3598 31.8395 37.7471 31.7094C37.7617 31.7435 37.7792 31.7763 37.7994 31.8073C38.5098 32.9386 39.3336 33.7749 40.2449 34.2603C41.1563 34.7456 42.1712 34.8584 43.1153 34.5302C43.5784 34.3692 44.0234 34.1499 44.4472 33.8856C45.1719 35.3243 45.2202 37.1625 44.4084 38.6877C43.282 40.8041 41.0142 41.5459 39.1 40.5642C38.9652 38.2822 37.5464 36.239 35.4119 35.6158C35.5804 34.5657 35.3713 33.4463 34.7484 32.5191C34.6907 32.4307 34.6122 32.3584 34.52 32.309C34.4278 32.2596 34.3248 32.2346 34.2206 32.2364C34.1324 32.2378 34.0455 32.2584 33.9657 32.2968C33.8859 32.3352 33.8151 32.3905 33.7579 32.459C33.7007 32.5274 33.6585 32.6076 33.6341 32.694C33.6097 32.7804 33.6036 32.8711 33.6163 32.9601C33.6192 32.9811 33.623 33.0018 33.6279 33.0224C33.6465 33.0983 33.6788 33.17 33.723 33.234C34.5454 34.458 34.3125 36.2346 33.237 37.1374C33.0688 37.2785 32.8925 37.3898 32.7112 37.4735C32.6337 37.5055 32.5634 37.5532 32.5044 37.6136C32.4454 37.6741 32.399 37.746 32.3679 37.8252C32.3369 37.9044 32.3219 37.9891 32.3238 38.0744C32.3257 38.1596 32.3445 38.2435 32.379 38.3212C32.4135 38.3988 32.4631 38.4686 32.5247 38.5262C32.5863 38.5839 32.6587 38.6282 32.7376 38.6566C32.8165 38.685 32.9002 38.6969 32.9836 38.6915C33.0671 38.6862 33.1487 38.6637 33.2234 38.6254C33.505 38.4952 33.7757 38.3248 34.0266 38.1142C34.4575 37.7525 34.7916 37.3079 35.0316 36.819C35.0354 36.8203 35.0393 36.8217 35.0432 36.8229C37.0214 37.3833 38.2721 39.6822 37.7516 41.9782C37.3612 43.7001 36.131 44.8702 34.7056 45.1115C34.5868 45.1316 34.4669 45.146 34.3457 45.153C34.1035 45.1669 33.8566 45.1536 33.6095 45.1124C33.4859 45.0919 33.3626 45.0644 33.2389 45.0294C33.0427 44.9738 32.8575 44.8962 32.6772 44.8089C32.8418 44.3026 32.9353 43.761 32.9353 43.1973C32.9373 43.032 32.8757 42.8725 32.7638 42.7528C32.6518 42.6332 32.4984 42.5629 32.3363 42.5571C32.1742 42.5513 32.0163 42.6104 31.8963 42.7217C31.7764 42.833 31.704 42.9878 31.6946 43.1528C31.6938 43.1676 31.6934 43.1825 31.6936 43.1973C31.6936 45.064 30.4471 46.5391 28.8969 46.7161C28.7936 46.7279 28.6894 46.7339 28.5836 46.7339C26.8922 46.7339 25.476 45.19 25.4746 43.2003C25.4746 43.1993 25.4746 43.1983 25.4746 43.1973L25.4891 35.6309C25.491 35.6049 25.4913 35.5788 25.4901 35.5528C25.383 33.0219 27.0853 30.9336 29.2481 30.7576C29.4851 31.4118 29.8788 32.0086 30.4296 32.471C30.6805 32.6816 30.9502 32.853 31.2318 32.9832C31.3063 33.019 31.387 33.0393 31.4693 33.043C31.5516 33.0468 31.6337 33.0337 31.711 33.0048C31.7883 32.9758 31.8592 32.9315 31.9195 32.8743C31.9798 32.8171 32.0284 32.7483 32.0624 32.6719C32.0963 32.5954 32.115 32.5128 32.1174 32.4289C32.1197 32.345 32.1057 32.2615 32.0761 32.1832C32.0464 32.1048 32.0018 32.0333 31.9448 31.9728C31.8878 31.9122 31.8195 31.8638 31.744 31.8304C31.5628 31.7466 31.3864 31.6354 31.2182 31.4942C30.1428 30.5914 29.9098 28.8148 30.7322 27.5908C30.7983 27.4954 30.8372 27.3832 30.8445 27.2666C30.8519 27.15 30.8274 27.0337 30.7739 26.9304C30.7204 26.8271 30.6398 26.7409 30.5412 26.6814C30.4426 26.6219 30.3298 26.5914 30.2152 26.5932C30.1144 26.5949 30.0156 26.6215 29.9272 26.6707C29.8388 26.72 29.7635 26.7904 29.7078 26.876C29.175 27.669 28.9446 28.603 28.9939 29.5138C28.2402 29.5994 27.5395 29.8548 26.9199 30.2465C26.0478 29.3962 25.4862 28.1274 25.5046 26.701L25.5143 21.287L25.525 15.8006C25.5259 15.7838 25.5263 15.767 25.5259 15.7502C25.5148 14.5583 25.9058 13.476 26.5454 12.6585C27.3903 13.3206 28.4195 13.7183 29.5409 13.7313C30.9172 13.7473 32.1634 13.1772 33.1088 12.2453L33.1093 12.2448Z" fill="url(#paint0_linear_205_37)"/>
<defs>
<linearGradient id="paint0_linear_205_37" x1="0" y1="0" x2="48" y2="0" gradientUnits="userSpaceOnUse">
<stop stop-color="#9288FF"/>
<stop offset="1" stop-color="#C0BBFF"/>
</linearGradient>
</defs>
</svg>
